<svg xmlns="http://www.w3.org/2000/svg" viewBox="0 0 64 64" fill="none">
  <defs>
    <linearGradient id="grad" x1="32" y1="6" x2="32" y2="58" gradientUnits="userSpaceOnUse">
      <stop offset="0%" stop-color="#FFD845"/>
      <stop offset="100%" stop-color="#FF9F00"/>
    </linearGradient>
  </defs>
  <circle cx="32" cy="32" r="30" fill="#1F1A2A"/>
  <path d="M16 26c0-8.8 7.2-16 16-16s16 7.2 16 16v6c0 8.8-7.2 16-16 16S16 40.8 16 32v-6Z" fill="url(#grad)"/>
  <path d="M24 34c0 4.4 3.6 8 8 8s8-3.6 8-8v-8H24v8Z" fill="#F4E05D"/>
  <path d="M21 18h22v8H21v-8Z" fill="#F4E05D" opacity="0.9"/>
  <path d="M32 10 28 22h8L32 10Z" fill="#FFF" opacity="0.8"/>
  <circle cx="32" cy="30" r="4" fill="#1F1A2A"/>
  <path d="M22 38c0 5.5 4.5 10 10 10s10-4.5 10-10" stroke="#F4E05D" stroke-width="3" stroke-linecap="round"/>
  <path d="M20 46 18 58 26 54" stroke="#F4E05D" stroke-width="3" stroke-linecap="round" stroke-linejoin="round"/>
  <path d="M44 46 46 58 38 54" stroke="#F4E05D" stroke-width="3" stroke-linecap="round" stroke-linejoin="round"/>
</svg>